<?xml version="1.0" encoding="utf-8"?>
<!-- Generator: Adobe Illustrator 19.2.1, SVG Export Plug-In . SVG Version: 6.00 Build 0)  -->
<svg version="1.1" id="Layer_1" xmlns="http://www.w3.org/2000/svg" xmlns:xlink="http://www.w3.org/1999/xlink" x="0px" y="0px"
	 viewBox="0 0 100 100" style="enable-background:new 0 0 100 100;" xml:space="preserve">
<style type="text/css">
	.st0{display:none;}
	.st1{display:inline;}
	.st2{fill:#010101;}
	.st3{display:inline;fill:#010101;}
	.st4{fill:#010101;stroke:#000000;stroke-miterlimit:10;}
	.st5{stroke:#000000;stroke-miterlimit:10;}
</style>
<g id="workflow" class="st0">
	<g class="st1">
		<g>
			<path class="st2" d="M50,25.3c3.7,0,6.6-3.1,6.6-6.6c0-3.7-2.9-6.6-6.6-6.6s-6.6,2.9-6.6,6.6C43.4,22.3,46.3,25.3,50,25.3z
				 M50,15.5c1.8,0,2.9,1.4,2.9,2.9c0,1.6-1.4,2.9-2.9,2.9c-1.6,0-2.9-1.2-2.9-2.9C47.1,16.9,48.2,15.5,50,15.5z"/>
			<path class="st2" d="M23.1,62.4c-3.7,0-6.6,2.9-6.6,6.6s2.9,6.6,6.6,6.6c3.5,0,6.6-2.9,6.6-6.6S26.8,62.4,23.1,62.4z M23.1,71.7
				c-1.6,0-2.9-1.4-2.9-2.9s1.2-2.9,2.9-2.9c1.6,0,2.9,1.4,2.9,2.9S24.8,71.7,23.1,71.7z"/>
			<path class="st2" d="M76.9,55.5c-6.2,0-11.6,2.9-15.1,7.4l-10.1-9.2V43c9.6-0.9,17.2-9.1,17.2-18.9c0-10.5-8.4-18.9-18.9-18.9
				s-18.9,8.6-18.9,18.9c0,9.9,7.6,18,17.2,18.9v10.6l-10.2,9.3c-3.4-4.5-8.9-7.3-15-7.3c-10.5,0-18.9,8.4-18.9,19
				s8.6,18.9,18.9,18.9S42,85,42,74.5c0-3-0.7-5.9-1.9-8.4L50,57l10,9.1c-1.2,2.5-1.9,5.3-1.9,8.3c0,10.5,8.6,18.9,18.9,18.9
				c10.5,0,18.9-8.4,18.9-18.9S87.5,55.5,76.9,55.5L76.9,55.5z M14.5,87.1c0.9-3,3.6-5,6.8-5h3.5c3.1,0,5.8,2,6.8,5
				c-2.4,1.6-5.4,2.6-8.5,2.6C19.9,89.7,17,88.7,14.5,87.1z M34.5,84.5c-1.9-3.5-5.5-6-9.7-6h-3.5c-4.3,0-8,2.3-9.8,5.8
				c-2.3-2.7-3.7-6.1-3.7-9.9c0-8.4,6.8-15.2,15.2-15.2c8.2,0,15.2,6.8,15.2,15.2C38.3,78.3,36.9,81.8,34.5,84.5L34.5,84.5z
				 M50,39.3c-3.2,0-6.1-1-8.5-2.6c0.9-3,3.6-5,6.8-5h3.5c3.1,0,5.8,2,6.8,5C56.1,38.4,53.2,39.3,50,39.3z M34.8,24.1
				c0-8.4,6.8-15.2,15.2-15.2s15.2,6.8,15.2,15.2c0,3.8-1.4,7.4-3.8,10c-1.9-3.5-5.5-6-9.7-6h-3.5c-4.3,0-8,2.3-9.8,5.8
				C36.2,31.4,34.8,27.9,34.8,24.1z M68.4,87.1c0.9-3,3.6-5,6.8-5h3.5c3.1,0,5.8,2,6.8,5c-2.4,1.6-5.4,2.6-8.5,2.6
				S70.8,88.7,68.4,87.1z M88.4,84.5c-1.9-3.5-5.5-6-9.7-6h-3.5c-4.3,0-8,2.3-9.8,5.8c-2.3-2.7-3.7-6.1-3.7-9.9
				c0-8.4,6.8-15.2,15.2-15.2S92.2,66,92.2,74.4C92.2,78.3,90.7,81.8,88.4,84.5L88.4,84.5z"/>
			<path class="st2" d="M76.9,62.4c-3.7,0-6.6,2.9-6.6,6.6s2.9,6.6,6.6,6.6s6.6-2.9,6.6-6.6C83.6,65.3,80.7,62.4,76.9,62.4z
				 M76.9,71.7c-1.6,0-2.9-1.4-2.9-2.9s1.2-2.9,2.9-2.9c1.7,0,2.9,1.4,2.9,2.9S78.7,71.7,76.9,71.7z"/>
		</g>
	</g>
</g>
<g id="Competition" class="st0">
	<g class="st1">
		<g>
			<path class="st2" d="M58.4,23c-0.7,0-1.3-0.5-1.4-1.2c-0.1-0.8,0.4-1.5,1.2-1.7l31.4-5.2c0.8-0.1,1.5,0.4,1.7,1.2
				c0.1,0.8-0.4,1.5-1.2,1.7L58.7,23C58.6,23,58.5,23,58.4,23z"/>
			<path class="st2" d="M9.2,31.2c-0.7,0-1.3-0.5-1.4-1.2c-0.1-0.8,0.4-1.5,1.2-1.7L40.6,23c0.8-0.1,1.5,0.4,1.7,1.2
				c0.1,0.8-0.4,1.5-1.2,1.7L9.5,31.1C9.4,31.2,9.3,31.2,9.2,31.2z"/>
		</g>
		<g>
			<g>
				<path class="st2" d="M79.5,68.2c-9.9,0-17.9-8-17.9-17.9c0-0.8,0.6-1.4,1.4-1.4h32.8c0.8,0,1.4,0.6,1.4,1.4
					C97.3,60.2,89.3,68.2,79.5,68.2z M64.6,51.8c0.7,7.6,7.1,13.5,14.9,13.5s14.2-5.9,14.9-13.5C94.4,51.8,64.6,51.8,64.6,51.8z"/>
				<path class="st2" d="M63,51.8c-0.2,0-0.5-0.1-0.7-0.2c-0.7-0.4-1-1.2-0.6-2l16.4-31.5c0.5-1,2.1-1,2.6,0l16.4,31.5
					c0.4,0.7,0.1,1.6-0.6,2s-1.6,0.1-2-0.6l-15-29L64.3,51C64.1,51.5,63.6,51.8,63,51.8z"/>
			</g>
			<g>
				<path class="st2" d="M19.5,77.6c-9.9,0-17.9-8-17.9-17.9c0-0.8,0.6-1.4,1.4-1.4h33c0.8,0,1.4,0.6,1.4,1.4
					C37.4,69.6,29.4,77.6,19.5,77.6z M4.6,61.2c0.7,7.6,7.1,13.5,14.9,13.5s14.2-5.9,14.9-13.5C34.4,61.2,4.6,61.2,4.6,61.2z"/>
				<path class="st2" d="M36,61.2c-0.5,0-1-0.3-1.3-0.8l-15.1-29l-15.1,29c-0.4,0.7-1.2,1-2,0.6c-0.7-0.4-1-1.2-0.6-2l16.4-31.5
					c0.5-1,2.1-1,2.6,0L37.3,59c0.4,0.7,0.1,1.6-0.6,2C36.4,61.1,36.2,61.2,36,61.2z"/>
			</g>
		</g>
		<path class="st2" d="M49.5,33.3c-5.7,0-10.3-4.6-10.3-10.3s4.6-10.3,10.3-10.3S59.8,17.3,59.8,23S55.2,33.3,49.5,33.3z M49.5,15.6
			c-4.1,0-7.4,3.3-7.4,7.4s3.3,7.4,7.4,7.4s7.4-3.3,7.4-7.4S53.6,15.6,49.5,15.6z"/>
		<path class="st2" d="M49.5,87.8c-0.8,0-1.4-0.6-1.4-1.4V31.8c0-0.8,0.6-1.4,1.4-1.4s1.4,0.6,1.4,1.4v54.5
			C50.9,87.2,50.3,87.8,49.5,87.8z"/>
		<path class="st2" d="M49.5,15.6c-0.8,0-1.4-0.6-1.4-1.4v-3.5c0-0.8,0.6-1.4,1.4-1.4s1.4,0.6,1.4,1.4v3.5
			C50.9,15,50.3,15.6,49.5,15.6z"/>
		<path class="st2" d="M68.6,87.8H30.4c-0.8,0-1.4-0.6-1.4-1.4s0.6-1.4,1.4-1.4h38.2c0.8,0,1.4,0.6,1.4,1.4S69.4,87.8,68.6,87.8z"/>
	</g>
</g>
<g id="Content-libraary" class="st0">
	<g class="st1">
		<g>
			<g>
				<path class="st2" d="M71.8,33.1h-3.3c-0.9,0-1.7,0.7-1.7,1.7s0.7,1.7,1.7,1.7h3.3c0.9,0,1.7-0.7,1.7-1.7S72.7,33.1,71.8,33.1z"
					/>
				<path class="st2" d="M71.8,39.8h-3.3c-0.9,0-1.7,0.7-1.7,1.7s0.7,1.7,1.7,1.7h3.3c0.9,0,1.7-0.7,1.7-1.7
					C73.4,40.5,72.7,39.8,71.8,39.8z"/>
				<path class="st2" d="M71.8,26.4h-3.3c-0.9,0-1.7,0.7-1.7,1.7c0,0.9,0.7,1.7,1.7,1.7h3.3c0.9,0,1.7-0.7,1.7-1.7
					C73.4,27.1,72.7,26.4,71.8,26.4z"/>
				<path class="st2" d="M71.8,79.9h-3.3c-0.9,0-1.7,0.7-1.7,1.7s0.7,1.7,1.7,1.7h3.3c0.9,0,1.7-0.7,1.7-1.7S72.7,79.9,71.8,79.9z"
					/>
				<path class="st2" d="M34.9,26.4h-10c-0.9,0-1.7,0.7-1.7,1.7v23.4c0,0.9,0.7,1.7,1.7,1.7h10c0.9,0,1.7-0.7,1.7-1.7V28
					C36.6,27.1,35.9,26.4,34.9,26.4z M33.3,49.8h-6.7V29.7h6.7V49.8z"/>
				<path class="st2" d="M34.9,79.9h-10c-0.9,0-1.7,0.7-1.7,1.7s0.7,1.7,1.7,1.7h10c0.9,0,1.7-0.7,1.7-1.7S35.9,79.9,34.9,79.9z"/>
				<path class="st2" d="M34.9,86.6h-10c-0.9,0-1.7,0.7-1.7,1.7c0,0.9,0.7,1.7,1.7,1.7h10c0.9,0,1.7-0.7,1.7-1.7
					C36.6,87.4,35.9,86.6,34.9,86.6z"/>
				<path class="st2" d="M71.8,86.6h-3.3c-0.9,0-1.7,0.7-1.7,1.7c0,0.9,0.7,1.7,1.7,1.7h3.3c0.9,0,1.7-0.7,1.7-1.7
					C73.4,87.4,72.7,86.6,71.8,86.6z"/>
				<path class="st2" d="M91.8,86.6h-6.7c-0.9,0-1.7,0.7-1.7,1.7c0,0.9,0.7,1.7,1.7,1.7h6.7c0.9,0,1.7-0.7,1.7-1.7
					C93.5,87.4,92.8,86.6,91.8,86.6z"/>
				<path class="st2" d="M56.7,28c0-0.9-0.7-1.7-1.7-1.7h-6.7c-0.9,0-1.7,0.7-1.7,1.7v23.4c0,0.9,0.7,1.7,1.7,1.7H55
					c0.9,0,1.7-0.7,1.7-1.7V28z M53.3,49.8H50V29.7h3.3V49.8z"/>
				<path class="st2" d="M91.8,79.9h-6.7c-0.9,0-1.7,0.7-1.7,1.7s0.7,1.7,1.7,1.7h6.7c0.9,0,1.7-0.7,1.7-1.7S92.8,79.9,91.8,79.9z"
					/>
				<path class="st2" d="M55,86.6h-6.7c-0.9,0-1.7,0.7-1.7,1.7c0,0.9,0.7,1.7,1.7,1.7H55c0.9,0,1.7-0.7,1.7-1.7
					C56.7,87.4,55.9,86.6,55,86.6z"/>
				<path class="st2" d="M85.1,59.8c0.9,0,1.7-0.7,1.7-1.7V41.4c0-0.9-0.7-1.7-1.7-1.7c-0.9,0-1.7,0.7-1.7,1.7v16.7
					C83.5,59.1,84.2,59.8,85.1,59.8z"/>
				<path class="st2" d="M93.5,41.4c0-0.9-0.7-1.7-1.7-1.7s-1.7,0.7-1.7,1.7v16.7c0,0.9,0.7,1.7,1.7,1.7s1.7-0.7,1.7-1.7V41.4z"/>
				<path class="st2" d="M95.2,13h-10c-0.9,0-1.7,0.7-1.7,1.7c0,0.9,0.7,1.7,1.7,1.7h10c0.9,0,1.7,0.8,1.7,1.7v77
					c0,0.9-0.8,1.7-1.7,1.7H80.1V26.4h10c0.9,0,1.7-0.7,1.7-1.7S91.1,23,90.2,23h-10V8c0-2.8-2.2-5-5-5h-10c-2.8,0-5,2.3-5,5v88.7
					H43.3v-87H55c0.9,0,1.7-0.7,1.7-1.7S55.9,6.3,55,6.3H43.3V4.6c0-2.8-2.2-5-5-5H21.6c-2.8,0-5,2.3-5,5v15.1H8.2
					c-0.9,0-1.7,0.7-1.7,1.7S7.2,23,8.2,23h8.4v73.6H4.8c-0.9,0-1.7-0.8-1.7-1.7V14.7c0-0.9,0.8-1.7,1.7-1.7h6.7
					c0.9,0,1.7-0.7,1.7-1.7s-0.7-1.7-1.7-1.7H4.8c-2.8,0-5,2.3-5,5V95c0,2.8,2.3,5,5,5h90.4c2.8,0,5-2.3,5-5V18
					C100.2,15.2,97.9,13,95.2,13z M40,96.7H19.9V13H35c0.9,0,1.7-0.7,1.7-1.7c0-0.9-0.7-1.7-1.7-1.7H19.9v-5c0-0.9,0.7-1.7,1.7-1.7
					h16.7c1,0,1.7,0.7,1.7,1.7L40,96.7L40,96.7z M76.8,96.7H63.4V16.3h8.4c0.9,0,1.7-0.7,1.7-1.7c0-0.9-0.7-1.7-1.7-1.7h-8.4V8
					c0-0.9,0.7-1.7,1.7-1.7h10c1,0,1.7,0.7,1.7,1.7C76.8,8,76.8,96.7,76.8,96.7z"/>
				<path class="st2" d="M11.5,79.9H8.2c-0.9,0-1.7,0.7-1.7,1.7s0.7,1.7,1.7,1.7h3.3c0.9,0,1.7-0.7,1.7-1.7S12.4,79.9,11.5,79.9z"/>
				<path class="st2" d="M11.5,86.6H8.2c-0.9,0-1.7,0.7-1.7,1.7c0,0.9,0.7,1.7,1.7,1.7h3.3c0.9,0,1.7-0.7,1.7-1.7
					C13.2,87.4,12.4,86.6,11.5,86.6z"/>
				<path class="st2" d="M55,79.9h-6.7c-0.9,0-1.7,0.7-1.7,1.7s0.7,1.7,1.7,1.7H55c0.9,0,1.7-0.7,1.7-1.7S55.9,79.9,55,79.9z"/>
				<path class="st2" d="M11.5,39.8H8.2c-0.9,0-1.7,0.7-1.7,1.7s0.7,1.7,1.7,1.7h3.3c0.9,0,1.7-0.7,1.7-1.7S12.4,39.8,11.5,39.8z"/>
				<path class="st2" d="M11.5,46.5H8.2c-0.9,0-1.7,0.7-1.7,1.7c0,0.9,0.7,1.7,1.7,1.7h3.3c0.9,0,1.7-0.7,1.7-1.7
					S12.4,46.5,11.5,46.5z"/>
			</g>
		</g>
	</g>
</g>
<g id="Engage" class="st0">
	<g class="st1">
		<path class="st2" d="M88.4,4.3H27.5c-5.2,0-9.5,4.2-9.5,9.5v12.9h-6.5C6.2,26.7,2,31,2,36.2V70c0,5.2,4.2,9.5,9.5,9.5h9.7v16
			c0,0.7,0.4,1.3,1,1.5c0.2,0.1,0.4,0.1,0.6,0.1c0.4,0,0.9-0.2,1.2-0.5l15.5-17.1h33c5.2,0,9.5-4.2,9.5-9.5V57.1h6.5
			c5.2,0,9.5-4.2,9.5-9.5V13.8C97.9,8.6,93.6,4.3,88.4,4.3z M78.7,70c0,3.5-2.8,6.3-6.3,6.3H38.7c-0.5,0-0.9,0.2-1.2,0.5L24.4,91.3
			V77.8c0-0.9-0.7-1.6-1.6-1.6H11.5c-3.5,0-6.3-2.8-6.3-6.3V36.2c0-3.5,2.8-6.3,6.3-6.3h8.1h52.8c1.3,0,2.5,0.4,3.5,1.1
			c1.7,1.1,2.8,3,2.8,5.2v19.3C78.7,55.5,78.7,70,78.7,70z M94.7,47.6c0,3.5-2.8,6.3-6.3,6.3h-6.5V36.2l0,0c0-4.2-2.8-7.8-6.7-9
			c-0.3-0.1-0.6-0.2-0.9-0.2c-0.6-0.1-1.3-0.2-1.9-0.2H21.2v-13c0-3.5,2.8-6.3,6.3-6.3h60.9c3.5,0,6.3,2.8,6.3,6.3
			C94.7,13.8,94.7,47.6,94.7,47.6z"/>
		<path class="st2" d="M21.2,45.9h22.4c0.9,0,1.6-0.7,1.6-1.6s-0.7-1.6-1.6-1.6H21.2c-0.9,0-1.6,0.7-1.6,1.6S20.3,45.9,21.2,45.9z"
			/>
		<path class="st2" d="M64.3,52.3H21.2c-0.9,0-1.6,0.7-1.6,1.6c0,0.9,0.7,1.6,1.6,1.6h43.1c0.9,0,1.6-0.7,1.6-1.6
			S65.2,52.3,64.3,52.3z"/>
		<path class="st2" d="M64.3,61.9H21.2c-0.9,0-1.6,0.7-1.6,1.6c0,0.9,0.7,1.6,1.6,1.6h43.1c0.9,0,1.6-0.7,1.6-1.6
			S65.2,61.9,64.3,61.9z"/>
	</g>
</g>
<g id="User-Engagement" class="st0">
	<g class="st1">
		<path class="st2" d="M31.7,68.3c4.4-2.9,7.2-7.9,7.2-13.6c0-9-7.3-16.3-16.3-16.3S6.2,45.7,6.2,54.7c0,5.6,2.9,10.6,7.2,13.6
			C8.7,69.6,5.3,73.9,5.3,79v19.5c0,0.9,0.7,1.6,1.6,1.6h31.2c0.9,0,1.6-0.7,1.6-1.6V78.9C39.7,73.9,36.3,69.6,31.7,68.3z
			 M26.3,73.3l-2-2.2h3.9L26.3,73.3z M20,71l3.9,4.4l-3.6,2.7L18.5,71H20z M31.9,71.7c0.2,0.1,0.4,0.2,0.6,0.3l-0.6,5.9l-3.3-2.4
			L31.9,71.7z M9.4,54.7c0-7.2,5.9-13.1,13.1-13.1s13.1,5.9,13.1,13.1s-5.9,13.1-13.1,13.1S9.4,61.9,9.4,54.7z M8.6,78.9
			c0-3.9,2.9-7.2,6.7-7.8l2.5,10.1c0.1,0.5,0.5,0.9,1,1.1c0.2,0.1,0.4,0.1,0.5,0.1c0.3,0,0.7-0.1,1-0.3l4.4-3.3v17.9h-8.1V80.9
			c0-0.9-0.7-1.6-1.6-1.6c-0.9,0-1.6,0.7-1.6,1.6v15.9H8.6V78.9z M36.5,96.8h-8.7V78.9l4.4,3.3c0.3,0.2,0.6,0.3,1,0.3
			c0.2,0,0.4,0,0.6-0.1c0.5-0.2,0.9-0.7,0.9-1.3l0.6-6.1c0.7,1.2,1.1,2.6,1.1,4L36.5,96.8L36.5,96.8z"/>
		<path class="st2" d="M31.5,83.4c-0.3-0.6-0.9-1-1.5-1c-0.7,0-1.3,0.5-1.5,1.2s0.1,1.4,0.7,1.8s1.3,0.4,1.9-0.1
			C31.5,84.9,31.7,84.1,31.5,83.4C31.4,83.4,31.5,83.5,31.5,83.4z"/>
		<path class="st2" d="M22,51.7c-0.3-0.6-0.8-1-1.5-1c-0.6,0-1.2,0.4-1.5,1s-0.1,1.4,0.4,1.8c0.5,0.5,1.3,0.5,1.9,0.1
			C22,53.3,22.3,52.4,22,51.7C22,51.6,22,51.8,22,51.7z"/>
		<path class="st2" d="M29.5,52.9c0.3,0.6,0.9,1,1.5,1c0.7,0,1.3-0.5,1.5-1.2c0.2-0.6-0.1-1.3-0.6-1.7c-0.6-0.4-1.3-0.4-1.9,0
			C29.5,51.5,29.3,52.3,29.5,52.9C29.6,53,29.5,52.8,29.5,52.9z"/>
		<path class="st2" d="M71,37.3c0.3,0.2,0.6,0.3,0.9,0.3s0.5-0.1,0.8-0.2c0.5-0.3,0.8-0.8,0.8-1.4v-3.7h1.6c2.8,0,5-2.2,5-5V10.5
			c0-2.8-2.2-5-5-5H58.4V4.8c0-2.8-2.2-5-5-5H24c-2.8,0-5,2.2-5,5v16.8c0,2.8,2.2,5,5,5h1.6v3.7c0,0.6,0.3,1.1,0.8,1.4
			c0.2,0.1,0.5,0.2,0.8,0.2s0.6-0.1,0.9-0.3l8-5.1h4.5v0.7c0,2.8,2.2,5,5,5H63L71,37.3z M35.6,23.4c-0.3,0-0.6,0.1-0.9,0.3l-5.9,3.8
			V25c0-0.9-0.7-1.6-1.6-1.6H24c-1,0-1.8-0.8-1.8-1.8V4.8C22.2,3.8,23,3,24,3h29.5c1,0,1.8,0.8,1.8,1.8v0.7h-9.6
			c-2.2,0-4,1.4-4.7,3.3H28.6c-0.9,0-1.6,0.7-1.6,1.6c0,0.9,0.7,1.6,1.6,1.6h12v2.7h-12c-0.9,0-1.6,0.7-1.6,1.6
			c0,0.9,0.7,1.6,1.6,1.6h12v5.5C40.6,23.4,35.6,23.4,35.6,23.4z M43.8,27.3V10.5c0-1,0.8-1.8,1.8-1.8h29.5c1,0,1.8,0.8,1.8,1.8
			v16.8c0,1-0.8,1.8-1.8,1.8h-3.2c-0.9,0-1.6,0.7-1.6,1.6v2.4l-5.9-3.8c-0.3-0.2-0.6-0.3-0.9-0.3H45.6C44.6,29,43.8,28.2,43.8,27.3z
			"/>
		<path class="st2" d="M50.3,17.7h20.2c0.9,0,1.6-0.7,1.6-1.6s-0.7-1.6-1.6-1.6H50.3c-0.9,0-1.6,0.7-1.6,1.6
			C48.7,17,49.4,17.7,50.3,17.7z"/>
		<path class="st2" d="M72,22c0-0.9-0.7-1.6-1.6-1.6H50.3c-0.9,0-1.6,0.7-1.6,1.6s0.7,1.6,1.6,1.6h20.2C71.3,23.6,72,22.9,72,22z"/>
		<path class="st2" d="M84.2,68.3c4.4-2.9,7.2-7.9,7.2-13.6c0-9-7.3-16.3-16.3-16.3s-16.3,7.3-16.3,16.3c0,5.6,2.9,10.6,7.2,13.6
			c-4.7,1.3-8.1,5.6-8.1,10.7v19.5c0,0.9,0.7,1.6,1.6,1.6h31.2c0.9,0,1.6-0.7,1.6-1.6V78.9C92.3,73.9,88.9,69.6,84.2,68.3z M80.9,71
			c-1.2,1.9-3.4,3.2-5.7,3.2S70.6,73,69.4,71H80.9z M62,54.7c0-7.2,5.9-13.1,13.1-13.1s13.1,5.9,13.1,13.1s-5.9,13.1-13.1,13.1
			C67.9,67.8,62,61.9,62,54.7z M61.2,78.9c0-3.3,2-6.1,4.9-7.3c1.6,3.5,5.1,5.8,9.1,5.8s7.4-2.3,9.1-5.8c2.9,1.2,4.9,4,4.9,7.3v5.7
			h-5.6v-3.8c0-0.9-0.7-1.6-1.6-1.6s-1.6,0.7-1.6,1.6v15.9H61.2V78.9L61.2,78.9z M83.5,96.8v-8.9h5.6v8.9H83.5z"/>
		<path class="st2" d="M75.7,52.9c0.3,0.7,1,1.1,1.7,1c0.6-0.1,1.2-0.6,1.3-1.2c0.2-0.7-0.1-1.4-0.7-1.7c-0.6-0.4-1.5-0.3-2,0.2
			C75.6,51.7,75.5,52.3,75.7,52.9C75.7,53,75.7,52.8,75.7,52.9z"/>
		<path class="st2" d="M68.2,52c0-0.2-0.1-0.4-0.2-0.6c-0.8-1.2-2.7-0.8-2.9,0.7c-0.2,1.3,1.2,2.3,2.4,1.6
			C68.1,53.4,68.4,52.7,68.2,52C68.2,51.9,68.3,52.1,68.2,52z"/>
		<path class="st2" d="M75.4,57.8c-0.5-0.5-1.3-0.5-1.8,0c-0.4,0.4-1,0.7-1.6,0.7s-1.2-0.2-1.6-0.7c-0.5-0.5-1.3-0.5-1.8,0
			s-0.5,1.3,0,1.8c0.9,0.9,2.2,1.4,3.4,1.4s2.5-0.5,3.4-1.4C75.9,59.1,75.9,58.3,75.4,57.8z"/>
	</g>
</g>
<g id="Overview" class="st0">
	<g class="st1">
		<g>
			<path class="st2" d="M94.3,46.7c-5.1-6.6-11.8-12-19.2-15.8c-7.6-3.8-15.8-5.8-24.3-5.9c-0.2,0-1.2,0-1.4,0
				c-8.5,0.1-16.7,2.1-24.3,5.9C17.6,34.6,11,40.1,5.9,46.7c-2,2.5-2,6.1,0,8.6c5.1,6.6,11.8,12,19.2,15.8
				c7.6,3.8,15.8,5.8,24.3,5.9c0.2,0,1.2,0,1.4,0c8.5-0.1,16.7-2.1,24.3-5.9c7.5-3.7,14.1-9.2,19.2-15.8
				C96.3,52.8,96.3,49.2,94.3,46.7z M26.6,67.7c-7-3.5-13.2-8.6-18-14.7c-0.9-1.2-0.9-2.8,0-4c4.8-6.2,11-11.2,18-14.7
				c2-1,4-1.8,6-2.6C27.3,36.5,24,43.3,24,51s3.3,14.5,8.6,19.3C30.6,69.6,28.6,68.7,26.6,67.7z M50,73.2c-12.3,0-22.2-10-22.2-22.2
				s10-22.2,22.2-22.2s22.2,10,22.2,22.2S62.3,73.2,50,73.2z M91.3,53c-4.8,6.2-11,11.2-18,14.7c-2,1-4,1.8-6,2.6
				c5.3-4.8,8.6-11.6,8.6-19.3s-3.3-14.5-8.6-19.3c2.1,0.7,4.1,1.6,6.1,2.6c7,3.5,13.2,8.6,18,14.7C92.3,50.2,92.3,51.8,91.3,53z"/>
		</g>
	</g>
	<g class="st1">
		<g>
			<path class="st2" d="M50,40.5c-5.8,0-10.5,4.7-10.5,10.5S44.2,61.5,50,61.5S60.5,56.8,60.5,51S55.8,40.5,50,40.5z M50,57.4
				c-3.5,0-6.4-2.9-6.4-6.4s2.9-6.4,6.4-6.4s6.4,2.9,6.4,6.4S53.5,57.4,50,57.4z"/>
		</g>
	</g>
</g>
<g id="Compose-post" class="st0">
	<g class="st1">
		<path class="st2" d="M62.2,37.8H24.1c-0.8,0-1.5,0.7-1.5,1.5s0.7,1.5,1.5,1.5h38.1c0.8,0,1.5-0.7,1.5-1.5S63.1,37.8,62.2,37.8z"/>
		<path class="st2" d="M24.1,28.7h15.2c0.8,0,1.5-0.7,1.5-1.5s-0.7-1.5-1.5-1.5H24.1c-0.8,0-1.5,0.7-1.5,1.5S23.3,28.7,24.1,28.7z"
			/>
		<path class="st2" d="M62.2,50H24.1c-0.8,0-1.5,0.7-1.5,1.5s0.7,1.5,1.5,1.5h38.1c0.8,0,1.5-0.7,1.5-1.5C63.8,50.7,63.1,50,62.2,50
			z"/>
		<path class="st2" d="M50,62.2H24.1c-0.8,0-1.5,0.7-1.5,1.5s0.7,1.5,1.5,1.5H50c0.8,0,1.5-0.7,1.5-1.5S50.9,62.2,50,62.2z"/>
		<path class="st2" d="M45.5,77.4c0.8,0,1.5-0.7,1.5-1.5s-0.7-1.5-1.5-1.5H24.1c-0.8,0-1.5,0.7-1.5,1.5s0.7,1.5,1.5,1.5H45.5z"/>
		<path class="st2" d="M10.4,7.3h44.2v21.3H76V56h3V26.5L56.8,4.3H7.4v91.4h44.2v-3H10.4C10.4,92.7,10.4,7.3,10.4,7.3z M57.7,9.5
			l16.1,16.1H57.7V9.5z"/>
		<path class="st2" d="M95.3,60.9L91,56.6c-1.7-1.7-4.7-1.7-6.4,0L61.1,80l-3.2,11.9L57,92.7c-0.6,0.6-0.6,1.5,0,2.1l0,0l0,0
			c0.3,0.3,0.7,0.4,1.1,0.4c0.4,0,0.8-0.1,1.1-0.4L60,94l11.9-3.2l23.4-23.5c0.9-0.9,1.3-2,1.3-3.2S96.1,61.8,95.3,60.9z M64.6,80.8
			l15.6-15.6l6.5,6.5L71,87.3L64.6,80.8z M63.2,83.7l4.9,4.9l-6.7,1.8L63.2,83.7z M93.1,65.2l-4.3,4.3L82.3,63l4.3-4.3
			c0.6-0.6,1.6-0.6,2.1,0L93,63c0.3,0.3,0.4,0.7,0.4,1.1C93.6,64.5,93.4,64.9,93.1,65.2z"/>
	</g>
</g>
<g id="Flag" class="st0">
	<path class="st3" d="M75,35.1L90.7,10c0.3-0.5,0.3-1.1,0-1.6s-0.8-0.8-1.4-0.8h-73V4.3c0-0.9-0.7-1.6-1.6-1.6s-1.6,0.7-1.6,1.6v4.9
		v47v4.9v37.3c0,0.9,0.7,1.6,1.6,1.6s1.6-0.7,1.6-1.6V62.7h73c0.6,0,1.1-0.3,1.4-0.8s0.3-1.1,0-1.6L75,35.1z M16.3,59.4v-3.2V10.8
		h70.1L71.7,34.3c-0.3,0.5-0.3,1.2,0,1.7l14.7,23.5L16.3,59.4L16.3,59.4z"/>
</g>
<g id="Task-management" class="st0">
	<g class="st1">
		<path class="st2" d="M82.3,0H17.7C13.5,0,10,3.5,10,7.8v84.3c0,4.3,3.5,7.8,7.7,7.8h64.6c4.2,0,7.7-3.5,7.7-7.8V7.8
			C90,3.5,86.5,0,82.3,0z M86.9,92.2c0,2.6-2.1,4.7-4.6,4.7H17.7c-2.5,0-4.6-2.1-4.6-4.7V7.8c0-2.6,2.1-4.7,4.6-4.7h64.6
			c2.5,0,4.6,2.1,4.6,4.7V92.2z"/>
		<path class="st2" d="M40.8,20.3h27.7c0.8,0,1.5-0.7,1.5-1.6s-0.7-1.6-1.5-1.6H40.8c-0.8,0-1.5,0.7-1.5,1.6S39.9,20.3,40.8,20.3z"
			/>
		<path class="st2" d="M79.2,23.4H40.8c-0.8,0-1.5,0.7-1.5,1.6s0.7,1.6,1.5,1.6h38.5c0.8,0,1.5-0.7,1.5-1.6S80.1,23.4,79.2,23.4z"/>
		<path class="st2" d="M40.8,32.8h33.8c0.8,0,1.5-0.7,1.5-1.6s-0.7-1.6-1.5-1.6H40.8c-0.8,0-1.5,0.7-1.5,1.6
			C39.2,32.1,39.9,32.8,40.8,32.8z"/>
		<path class="st2" d="M33.1,67.2H20.8c-0.8,0-1.5,0.7-1.5,1.6v12.5c0,0.9,0.7,1.6,1.5,1.6h12.3c0.8,0,1.5-0.7,1.5-1.6V68.7
			C34.6,67.9,33.9,67.2,33.1,67.2z M31.5,79.7h-9.2v-9.4h9.2V79.7z"/>
		<path class="st2" d="M40.8,70.3h27.7c0.8,0,1.5-0.7,1.5-1.6s-0.7-1.6-1.5-1.6H40.8c-0.8,0-1.5,0.7-1.5,1.6S39.9,70.3,40.8,70.3z"
			/>
		<path class="st2" d="M79.2,73.4H40.8c-0.8,0-1.5,0.7-1.5,1.6s0.7,1.6,1.5,1.6h38.5c0.8,0,1.5-0.7,1.5-1.6S80.1,73.4,79.2,73.4z"/>
		<path class="st2" d="M74.6,79.7H40.8c-0.8,0-1.5,0.7-1.5,1.6s0.7,1.6,1.5,1.6h33.8c0.8,0,1.5-0.7,1.5-1.6S75.5,79.7,74.6,79.7z"/>
		<path class="st2" d="M33.1,42.2H20.8c-0.8,0-1.5,0.7-1.5,1.6v12.5c0,0.9,0.7,1.6,1.5,1.6h12.3c0.8,0,1.5-0.7,1.5-1.6V43.7
			C34.6,42.9,33.9,42.2,33.1,42.2z M31.5,54.7h-9.2v-9.4h9.2V54.7z"/>
		<path class="st2" d="M40.8,45.3h27.7c0.8,0,1.5-0.7,1.5-1.6c0-0.9-0.7-1.6-1.5-1.6H40.8c-0.8,0-1.5,0.7-1.5,1.6
			C39.2,44.6,39.9,45.3,40.8,45.3z"/>
		<path class="st2" d="M79.2,48.4H40.8c-0.8,0-1.5,0.7-1.5,1.6c0,0.9,0.7,1.6,1.5,1.6h38.5c0.8,0,1.5-0.7,1.5-1.6
			C80.8,49.1,80.1,48.4,79.2,48.4z"/>
		<path class="st2" d="M40.8,57.8h33.8c0.8,0,1.5-0.7,1.5-1.6c0-0.9-0.7-1.6-1.5-1.6H40.8c-0.8,0-1.5,0.7-1.5,1.6
			C39.2,57.1,39.9,57.8,40.8,57.8z"/>
		<path class="st2" d="M35.1,14.5l-2.6,2.7h-7.1c-0.8,0-1.5,0.7-1.5,1.6s0.7,1.6,1.5,1.6h4l-4,4l-5.1-5.1c-0.6-0.6-1.6-0.6-2.2,0
			s-0.6,1.6,0,2.2l1.1,1.1v8.7c0,0.9,0.7,1.6,1.5,1.6H33c0.8,0,1.5-0.7,1.5-1.6v-4.7c0-0.9-0.7-1.6-1.5-1.6s-1.5,0.7-1.5,1.6v3.1
			h-9.2v-4l2,2c0.3,0.3,0.7,0.5,1.1,0.5s0.8-0.2,1.1-0.5l10.8-10.9c0.6-0.6,0.6-1.6,0-2.2C36.6,13.9,35.7,13.9,35.1,14.5z"/>
	</g>
</g>
<g id="Respond" class="st0">
	<g class="st1">
		<path class="st2" d="M43.8,30.7V15.5c0-0.9-0.5-1.7-1.3-2.1c-0.8-0.4-1.8-0.3-2.5,0.3L4.8,42.8C4.3,43.2,4,43.9,4,44.6
			c0,0.7,0.3,1.4,0.8,1.8L40,75.5c0.7,0.6,1.7,0.7,2.5,0.3c0.8-0.4,1.3-1.2,1.3-2.1V58.6c14.6,0.1,36.9,1.2,48.8,22.1
			c0.4,0.7,1.2,1.2,2,1.2c0.2,0,0.4,0,0.6-0.1c1-0.3,1.7-1.2,1.7-2.2c0-7.8-3-19.8-11.4-30C78.9,41.3,66.2,31.5,43.8,30.7z
			 M91.1,70.4c-14.4-16.5-36-16.5-49.6-16.5c-0.6,0-1.2,0.2-1.7,0.7s-0.7,1-0.7,1.7v12.5L10,44.6l29.2-24.1V33c0,1.3,1,2.3,2.3,2.3
			C75,35.6,87.5,56,91.1,70.4z"/>
	</g>
</g>
<g id="Analyze" class="st0">
	<g class="st1">
		<path class="st2" d="M96,14.1H51.5V9.5C51.5,8.7,50.8,8,50,8s-1.5,0.7-1.5,1.5v4.6H4v64.4h42.3L27.4,97.4c-0.6,0.6-0.6,1.6,0,2.2
			c0.3,0.3,0.7,0.4,1.1,0.4s0.8-0.2,1.1-0.4l18.8-18.8v14.7c0,0.8,0.7,1.5,1.5,1.5s1.5-0.7,1.5-1.5V80.7l18.8,18.8
			c0.3,0.3,0.7,0.4,1.1,0.4s0.8-0.2,1.1-0.4c0.6-0.6,0.6-1.6,0-2.2L53.7,78.5H96V14.1z M92.9,75.5H7.1V17.2H93L92.9,75.5L92.9,75.5z
			"/>
		<path class="st2" d="M59.2,72.4c0.8,0,1.5-0.7,1.5-1.5v-4.6c0-0.8-0.7-1.5-1.5-1.5s-1.5,0.7-1.5,1.5v4.6
			C57.7,71.7,58.4,72.4,59.2,72.4z"/>
		<path class="st2" d="M65.3,58.6c-0.8,0-1.5,0.7-1.5,1.5v10.7c0,0.8,0.7,1.5,1.5,1.5s1.5-0.7,1.5-1.5V60.1
			C66.9,59.3,66.2,58.6,65.3,58.6z"/>
		<path class="st2" d="M71.5,61.7c-0.8,0-1.5,0.7-1.5,1.5v7.7c0,0.8,0.7,1.5,1.5,1.5s1.5-0.7,1.5-1.5v-7.7
			C73,62.4,72.3,61.7,71.5,61.7z"/>
		<path class="st2" d="M77.6,50.9c-0.8,0-1.5,0.7-1.5,1.5v18.4c0,0.8,0.7,1.5,1.5,1.5s1.5-0.7,1.5-1.5V52.5
			C79.1,51.6,78.4,50.9,77.6,50.9z"/>
		<path class="st2" d="M83.7,57.1c-0.8,0-1.5,0.7-1.5,1.5v12.3c0,0.8,0.7,1.5,1.5,1.5s1.5-0.7,1.5-1.5V58.6
			C85.3,57.8,84.6,57.1,83.7,57.1z"/>
		<path class="st2" d="M16.3,66.3h15.3c0.8,0,1.5-0.7,1.5-1.5s-0.7-1.5-1.5-1.5H16.3c-0.8,0-1.5,0.7-1.5,1.5
			C14.7,65.6,15.4,66.3,16.3,66.3z"/>
		<path class="st2" d="M39.3,69.3h-23c-0.8,0-1.5,0.7-1.5,1.5s0.7,1.5,1.5,1.5h23c0.8,0,1.5-0.7,1.5-1.5S40.1,69.3,39.3,69.3z"/>
		<path class="st2" d="M49.9,36.5c0-0.4-0.1-0.7-0.1-1.1c0-0.2-0.1-0.4-0.1-0.7c-0.1-0.4-0.2-0.8-0.3-1.2c0-0.2-0.1-0.4-0.1-0.5
			c-0.1-0.4-0.3-0.8-0.4-1.2c-0.1-0.2-0.1-0.3-0.2-0.5c-0.1-0.4-0.3-0.7-0.5-1.1c-0.1-0.2-0.2-0.4-0.3-0.6c-0.2-0.3-0.3-0.6-0.5-0.9
			c-0.1-0.2-0.3-0.5-0.4-0.7c-0.1-0.2-0.3-0.4-0.4-0.6c-0.2-0.3-0.4-0.6-0.6-0.9l0,0c-0.4-0.4-0.7-0.9-1.1-1.3
			c-0.4-0.4-0.8-0.7-1.2-1.1c0,0,0,0-0.1-0.1c-0.3-0.2-0.5-0.4-0.8-0.6c-0.2-0.2-0.4-0.3-0.6-0.5c-0.2-0.1-0.4-0.3-0.6-0.4
			c-0.3-0.2-0.6-0.4-0.9-0.5c-0.2-0.1-0.3-0.2-0.5-0.2c-0.4-0.2-0.8-0.4-1.1-0.5c-0.2-0.1-0.3-0.1-0.5-0.2c-0.4-0.2-0.8-0.3-1.2-0.4
			c-0.2,0-0.3-0.1-0.5-0.1c-0.4-0.1-0.8-0.2-1.2-0.3c-0.2,0-0.4-0.1-0.7-0.1c-0.4,0-0.7-0.1-1.1-0.1c-0.3,0-0.6,0-0.8,0
			s-0.4,0-0.5,0s-0.3,0-0.4,0c-0.1,0-0.3,0-0.4,0h-0.6l0,0C22.1,20.8,15,28.4,15,37.7c0,9.7,7.9,17.6,17.6,17.6
			c4.4,0,8.4-1.6,11.5-4.3c0,0,0.1,0,0.1-0.1c0,0,0-0.1,0.1-0.1c3.3-2.9,5.4-7,5.8-11.6l0,0v-0.7c0-0.1,0-0.3,0-0.4
			c0-0.1,0-0.3,0-0.4c0-0.2,0-0.4,0-0.6C50,37.1,50,36.8,49.9,36.5z M33.1,23.4c0.2,0,0.3,0,0.5,0s0.3,0,0.5,0c0.3,0,0.7,0.1,1,0.2
			c0.1,0,0.2,0,0.3,0.1c0.4,0.1,0.8,0.2,1.2,0.3h0.1c4.5,1.4,8.1,5,9.6,9.6v0.1c0.1,0.4,0.2,0.8,0.3,1.2c0,0.1,0,0.2,0.1,0.3
			c0.1,0.3,0.1,0.7,0.2,1c0,0.2,0,0.3,0,0.5s0,0.3,0,0.5H33.1V23.4z M17.8,37.9c0-7.2,5.3-13.3,12.3-14.4v15.1l0,0l0,0l0.1,1.5H31
			l9.7,9.7c-2.4,1.6-5.2,2.6-8.3,2.6C24.3,52.5,17.8,45.9,17.8,37.9z M43,47.9l-7.7-7.7h11.4C46.3,43.1,44.9,45.8,43,47.9z"/>
		<path class="st2" d="M63.8,31h12.3c0.8,0,1.5-0.7,1.5-1.5S76.9,28,76.1,28H63.8c-0.8,0-1.5,0.7-1.5,1.5S63,31,63.8,31z"/>
		<path class="st2" d="M82.7,28.4c-0.3,0.3-0.5,0.7-0.5,1.1s0.2,0.8,0.4,1.1c0.3,0.3,0.7,0.5,1.1,0.5s0.8-0.2,1.1-0.4
			c0.3-0.3,0.4-0.7,0.4-1.1s-0.2-0.8-0.4-1.1C84.2,27.8,83.2,27.8,82.7,28.4z"/>
		<path class="st2" d="M79.1,23.3h4.6c0.8,0,1.5-0.7,1.5-1.5s-0.7-1.5-1.5-1.5h-4.6c-0.8,0-1.5,0.7-1.5,1.5
			C77.6,22.6,78.3,23.3,79.1,23.3z"/>
		<path class="st2" d="M63.8,23.3h3.1c0.8,0,1.5-0.7,1.5-1.5s-0.7-1.5-1.5-1.5h-3.1c-0.8,0-1.5,0.7-1.5,1.5
			C62.3,22.6,63,23.3,63.8,23.3z"/>
		<path class="st2" d="M73,23.3c0.4,0,0.8-0.2,1.1-0.4c0.3-0.3,0.4-0.7,0.4-1.1s-0.2-0.8-0.4-1.1c-0.6-0.6-1.6-0.6-2.2,0
			c-0.3,0.3-0.4,0.7-0.4,1.1s0.2,0.8,0.4,1.1C72.2,23.2,72.6,23.3,73,23.3z"/>
	</g>
</g>
<g id="Post-Performance" class="st0">
	<g class="st1">
		<g>
			<g>
				<path class="st2" d="M48.5,11.5c0.8,0,1.5,0.7,1.5,1.5s-0.7,1.5-1.5,1.5H6.3V67h87.4V14.4H54.4c-0.8,0-1.5-0.7-1.5-1.5
					s0.7-1.5,1.5-1.5h40.8l0,0c0.8,0,1.5,0.7,1.5,1.5v55.4l0,0c0,0.8-0.7,1.5-1.5,1.5H4.9l0,0c-0.8,0-1.5-0.7-1.5-1.5V13l0,0
					c0-0.8,0.7-1.5,1.5-1.5H48.5z"/>
				<path class="st2" d="M47.1,4.2c0-0.8,0.6-1.5,1.5-1.5c0.8,0,1.5,0.6,1.5,1.5v8.7c0,0.8-0.6,1.5-1.5,1.5s-1.5-0.6-1.5-1.5V4.2z"
					/>
				<path class="st2" d="M47.1,74.1c0-0.8,0.6-1.5,1.5-1.5c0.8,0,1.5,0.6,1.5,1.5v14.6c0,0.8-0.6,1.5-1.5,1.5s-1.5-0.6-1.5-1.5V74.1
					z"/>
				<path class="st2" d="M26.7,73.7c0.2-0.8,1-1.2,1.8-1s1.2,1,1,1.8l-5.8,20.4c-0.2,0.8-1,1.2-1.8,1s-1.2-1-1-1.8L26.7,73.7z"/>
				<path class="st2" d="M67.5,74.5c-0.2-0.8,0.2-1.6,1-1.8c0.8-0.2,1.6,0.2,1.8,1l5.8,20.4c0.2,0.8-0.2,1.6-1,1.8
					c-0.8,0.2-1.6-0.2-1.8-1L67.5,74.5z"/>
				<path class="st2" d="M41.2,59.6c0,0.8-0.7,1.5-1.5,1.5s-1.5-0.7-1.5-1.5v-19H17.9v18.9c0,0.8-0.7,1.5-1.5,1.5
					c-0.8,0-1.5-0.7-1.5-1.5V39.2l0,0c0-0.8,0.7-1.5,1.5-1.5h23.3l0,0c0.8,0,1.5,0.7,1.5,1.5L41.2,59.6L41.2,59.6L41.2,59.6z"/>
				<path class="st2" d="M87.9,59.6c0,0.8-0.6,1.5-1.5,1.5c-0.8,0-1.5-0.6-1.5-1.5V34.8h-16c-0.8,0-1.5-0.7-1.5-1.5s0.7-1.5,1.5-1.5
					h17.5l0,0c0.8,0,1.5,0.6,1.5,1.5V59.6z"/>
				<path class="st2" d="M64.6,59.6c0,0.8-0.6,1.5-1.5,1.5c-0.8,0-1.5-0.6-1.5-1.5V26.1H41.2v7.3c0,0.8-0.7,1.5-1.5,1.5
					s-1.5-0.7-1.5-1.5v-8.7l0,0c0-0.8,0.7-1.5,1.5-1.5H63l0,0c0.8,0,1.5,0.6,1.5,1.5L64.6,59.6z"/>
				<path class="st2" d="M4.8,75.6c-0.8,0-1.5-0.7-1.5-1.5s0.7-1.5,1.5-1.5h90.3c0.8,0,1.5,0.7,1.5,1.5s-0.7,1.5-1.5,1.5H4.8z"/>
			</g>
		</g>
	</g>
</g>
<g id="Publish" class="st0">
	<g class="st1">
		<g>
			<path class="st2" d="M92.9,11.7c-0.4-0.4-1-0.5-1.5-0.3L5.6,44.8C5.1,45,4.7,45.4,4.7,46c0,0.5,0.2,1.1,0.7,1.3l17.8,10l6.2,30.2
				c0,0.2,0.1,0.4,0.2,0.6l0,0c0.2,0.3,0.5,0.5,0.9,0.5h0.1h0.1c0.3,0,0.5-0.1,0.7-0.2c0.1,0,0.1-0.1,0.2-0.2c0,0,0,0,0.1-0.1
				l13.4-13.4c0.6-0.6,0.6-1.4,0-2s-1.4-0.6-2,0L32.6,83.4l2.3-19.5L67,81.5c0.3,0.2,0.7,0.2,1,0.1h0.1c0.3-0.1,0.6-0.3,0.8-0.6l0,0
				c0-0.1,0.1-0.1,0.1-0.2l24.2-67.5C93.4,12.7,93.3,12.1,92.9,11.7z M9.4,46.3l70.2-27.2L24.4,54.8L9.4,46.3z M32.8,60.6
				c-0.1,0.1-0.2,0.2-0.3,0.4c0,0,0,0,0,0.1c-0.1,0.2-0.1,0.3-0.2,0.5l-2,16.8L26,57.1l47.6-30.8L32.8,60.6z M66.9,78.3L36.2,61.4
				l52.6-44.2L66.9,78.3z"/>
		</g>
	</g>
</g>
<g id="Publishing-options" class="st0">
	<g class="st1">
		<path class="st2" d="M15.3,49.5C7,59.7,4,71.7,4,79.5c0,1.1,0.7,2,1.7,2.2c0.2,0.1,0.4,0.1,0.6,0.1c0.8,0,1.6-0.4,2-1.2
			c11.9-20.9,34.2-22,48.8-22.1v15.1c0,0.9,0.5,1.7,1.3,2.1s1.8,0.3,2.5-0.3l35.2-29.1c0.5-0.4,0.8-1.1,0.8-1.8s-0.3-1.4-0.9-1.8
			l-35.1-29c-0.7-0.6-1.7-0.7-2.5-0.3s-1.3,1.2-1.3,2.1v15.2C34.7,31.5,22.1,41.3,15.3,49.5z M59.5,35.3c1.3,0,2.3-1,2.3-2.3V20.5
			L91,44.6L61.8,68.8V56.3c0-0.6-0.2-1.2-0.7-1.7c-0.4-0.4-1-0.7-1.7-0.7c-13.6,0-35.1,0-49.6,16.5C13.5,56,26,35.6,59.5,35.3z"/>
	</g>
</g>
<path class="st4" d="M45.3,98C21.8,98,2.7,78.9,2.7,55.3s19.1-42.7,42.7-42.7c0.7,0,1.3,0.6,1.3,1.3V54h40.1c0.7,0,1.3,0.6,1.3,1.3
	C88,78.9,68.9,98,45.3,98z M44,15.3C22.5,16,5.3,33.7,5.3,55.3c0,22.1,18,40.1,40.1,40.1c21.7,0,39.4-17.3,40.1-38.8H45.3
	c-0.7,0-1.3-0.6-1.3-1.3V15.3z"/>
<path class="st5" d="M97,46.3H55.7c-0.7,0-1.3-0.6-1.3-1.3V3.6c0-0.7,0.6-1.3,1.3-1.3c23.5,0,42.7,19.1,42.7,42.7
	C98.3,45.7,97.8,46.3,97,46.3z M57,43.7h38.8C95.1,22.6,78,5.6,57,4.9V43.7z"/>
<g id="Engage-landing" class="st0">
	<g class="st1">
		<g>
			<path class="st2" d="M70.9,16.1H9.2c-2.9,0-5.2,2.3-5.2,5.2v37c0,2.9,2.3,5.2,5.2,5.2h4v13.8c0,0.9,0.5,1.7,1.3,2
				c0.3,0.1,0.6,0.2,0.8,0.2c0.6,0,1.1-0.2,1.5-0.6l15.3-15.3h3.1c1.2,0,2.2-1,2.2-2.2s-1-2.2-2.2-2.2h-4.1c-0.5,0-1,0.2-1.4,0.6
				L17.5,72.1V61.2c-0.1-1.1-1-2-2.2-2H9.2c-0.5,0-0.8-0.4-0.8-0.8v-37c0-0.5,0.4-0.8,0.8-0.8h61.7c0.5,0,0.8,0.4,0.8,0.8v14.2
				c0,1.2,1,2.2,2.2,2.2s2.2-1,2.2-2.2V21.3C76.1,18.4,73.8,16.1,70.9,16.1z"/>
		</g>
	</g>
	<g class="st1">
		<g>
			<path class="st2" d="M90.8,42.7H47.6c-2.9,0-5.2,2.3-5.2,5.2v25.3c0,2.9,2.3,5.2,5.2,5.2h27l11,11c0.4,0.4,1,0.6,1.5,0.6
				c0.3,0,0.6-0.1,0.8-0.2c0.8-0.3,1.3-1.1,1.3-2v-9.4h1.5c2.9,0,5.2-2.3,5.2-5.2V47.8C96,45,93.7,42.7,90.8,42.7z M91.7,73.1
				c0,0.5-0.4,0.8-0.8,0.8h-3.7c-1.1,0-2.1,0.9-2.2,2v6.5l-7.9-7.9l0,0L77,74.4c-0.4-0.3-0.9-0.5-1.4-0.5h-28
				c-0.5,0-0.8-0.4-0.8-0.8V47.8c0-0.5,0.4-0.8,0.8-0.8h43.2c0.5,0,0.8,0.4,0.8,0.8L91.7,73.1L91.7,73.1z"/>
		</g>
	</g>
	<g class="st1">
		<g>
			<path class="st2" d="M59.8,30.5H20.3c-1.2,0-2.2,1-2.2,2.2s1,2.2,2.2,2.2h39.5c1.2,0,2.2-1,2.2-2.2C62,31.4,61,30.5,59.8,30.5z"
				/>
		</g>
	</g>
	<g class="st1">
		<g>
			<path class="st2" d="M35.3,44.8h-15c-1.2,0-2.2,1-2.2,2.2s1,2.2,2.2,2.2h15c1.2,0,2.2-1,2.2-2.2S36.5,44.8,35.3,44.8z"/>
		</g>
	</g>
</g>
<g id="Publish-landing" class="st0">
	<g class="st1">
		<path class="st2" d="M97.3,12.1L97.3,12.1L97.3,12.1c0-0.1,0-0.1,0-0.1s0,0,0-0.1l0,0l0,0l0,0c0,0,0,0,0-0.1v-0.1l0,0
			c0,0,0,0,0-0.1v-0.1l0,0l0,0l0,0c0,0,0,0,0-0.1c0,0,0,0,0-0.1l0,0l0,0c0,0,0-0.1-0.1-0.1l0,0l0,0l0,0c0,0,0,0-0.1-0.1l0,0l0,0l0,0
			c0,0,0,0-0.1-0.1l0,0l0,0l0,0l0,0l0,0l0,0l0,0c0,0-0.1,0-0.1-0.1c0,0,0,0-0.1,0c0,0,0,0-0.1,0l0,0l0,0l0,0c0,0,0,0-0.1,0
			c0,0,0,0-0.1,0l0,0l0,0h-0.1l0,0l0,0h-0.1c0,0,0,0-0.1,0l0,0l0,0l0,0c0,0,0,0-0.1,0c0,0,0,0-0.1,0l0,0l0,0c0,0,0,0-0.1,0
			c0,0,0,0-0.1,0l0,0c0,0,0,0-0.1,0c0,0,0,0-0.1,0l0,0l0,0l-92,35.2c-0.6,0.2-0.9,0.8-0.9,1.4c0,0.6,0.4,1.2,0.9,1.4L31,59.4l8.8,27
			l0,0l0,0c0,0.1,0,0.1,0.1,0.2l0,0c0,0.1,0.1,0.1,0.1,0.2l0,0l0,0l0,0l0,0c0,0,0,0,0,0.1l0,0l0,0l0,0l0,0l0,0c0,0,0.1,0,0.1,0.1
			l0,0l0,0l0,0l0.1,0.1l0,0l0,0c0,0,0.1,0,0.2,0.1l0,0l0,0c0.1,0,0.1,0,0.2,0l0,0l0,0c0.1,0,0.1,0,0.2,0l0,0l0,0l0,0l0,0
			c0.1,0,0.1,0,0.2,0l0,0l0,0h0.1l0,0l0,0l0,0c0,0,0,0,0.1,0h0.1l0,0l0,0l0,0h0.1c0,0,0,0,0.1,0l0,0l0,0c0,0,0,0,0.1-0.1l0,0l0,0
			l0,0l0.1-0.1l0,0l0,0l0,0l10.8-14.6c0.5-0.7,0.3-1.6-0.3-2.1c-0.7-0.5-1.6-0.3-2.1,0.3L46,76.8l3.7-10.2L85.1,80
			c0.2,0.1,0.3,0.1,0.5,0.1c0.3,0,0.5-0.1,0.7-0.2c0.4-0.2,0.6-0.6,0.7-1.1l10.2-66.6l0,0C97.3,12.2,97.3,12.2,97.3,12.1
			C97.3,12.2,97.3,12.1,97.3,12.1z M85.8,17.5L43.5,48.2c-0.7,0.5-0.8,1.4-0.3,2.1c0.3,0.4,0.7,0.6,1.2,0.6c0.3,0,0.6-0.1,0.9-0.3
			l40.3-29.3L47.9,63.7c-0.1,0.1-0.3,0.3-0.3,0.5v0.1l-6.3,17.1l-7.7-23.6c-0.1-0.4-0.5-0.8-0.9-0.9l0,0L8.3,47.5L85.8,17.5z
			 M84.4,76.6l-33-12.5l42.2-47.4L84.4,76.6z"/>
		<path class="st2" d="M37,56.3c0.3,0,0.6-0.1,0.9-0.3l2.9-2.1c0.7-0.5,0.8-1.4,0.3-2.1c-0.5-0.7-1.4-0.8-2.1-0.3l-2.9,2.1
			c-0.7,0.5-0.8,1.4-0.3,2.1C36.1,56,36.5,56.3,37,56.3z"/>
	</g>
</g>
</svg>
