<?xml version="1.0" encoding="iso-8859-1"?>
<!-- Generator: Adobe Illustrator 19.0.0, SVG Export Plug-In . SVG Version: 6.00 Build 0)  -->
<svg version="1.1" id="Layer_1" xmlns="http://www.w3.org/2000/svg" xmlns:xlink="http://www.w3.org/1999/xlink" x="0px" y="0px"
	 viewBox="0 0 512 512" style="enable-background:new 0 0 512 512;" xml:space="preserve">
<g>
	<g>
		<path d="M428.229,279.941c46.192,0,83.77-37.579,83.77-83.771c0-45.975-37.226-83.417-83.119-83.768
			C421.342,49.18,367.394,0,302.176,0c-33.786,0-65.879,13.3-89.686,36.84c-10.696-3.943-22.092-5.996-33.511-5.996
			c-48.183,0-88.254,35.396-95.568,81.556C37.383,112.591,0,150.096,0,196.17c0,46.192,37.578,83.771,83.77,83.771h0.346v159.298
			H62.214v45.513c0,15.024,12.224,27.248,27.248,27.248h333.077c15.024,0,27.248-12.224,27.248-27.248v-45.513h-21.902V279.941
			H428.229z M419.369,481.583H92.631v-11.927h326.738V481.583z M271.209,343.416v-50.197h80.632v100.394H160.159V293.219h80.632
			v50.197H271.209z M240.791,262.803H129.742v161.229h252.517v-161.23h-111.05v-15.209h126.258v32.347v159.299H114.533V279.941
			v-32.347h126.258V262.803z M423.224,229.2c-4.901-7.249-13.198-12.024-22.588-12.024h-0.001H271.209v-73.552l44.216,44.216
			l21.508-21.508L256,85.399l-80.933,80.933l21.508,21.508l44.217-44.216v73.552H111.365h-0.001c-9.39,0-17.687,4.774-22.588,12.024
			c-2.941,4.35-4.66,9.59-4.66,15.224v5.099h-0.346v0.001c-29.42,0-53.353-23.935-53.353-53.354
			c0-29.419,23.933-53.354,53.353-53.354h28.865v-15.209c0-36.583,29.762-66.346,66.345-66.346c10.674,0,20.885,2.474,30.348,7.355
			l10.767,5.554l7.82-9.253c18.529-21.926,45.597-34.5,74.261-34.5c53.589,0,97.188,43.599,97.188,97.189v15.209h28.865
			c29.42,0,53.353,23.934,53.353,53.354s-23.933,53.354-53.353,53.354h-0.346v-5.099C427.884,238.789,426.165,233.55,423.224,229.2z
			"/>
	</g>
</g>
<g>
</g>
<g>
</g>
<g>
</g>
<g>
</g>
<g>
</g>
<g>
</g>
<g>
</g>
<g>
</g>
<g>
</g>
<g>
</g>
<g>
</g>
<g>
</g>
<g>
</g>
<g>
</g>
<g>
</g>
</svg>
